{
  "accessors": [
    {
      "bufferView": 2,
      "componentType": 5126,
      "count": 165,
      "max": [
        4.698186874389648,
        17.774621963500977,
        73.31443786621094
      ],
      "min": [
        3.897766590118408,
        16.57630729675293,
        71.50648498535156
      ],
      "type": "VEC3"
    },
    {
      "bufferView": 2,
      "byteOffset": 1980,
      "componentType": 5126,
      "count": 165,
      "max": [
        0.9986389875411987,
        0.935815691947937,
        0.9991331100463867
      ],
      "min": [
        -0.9999997019767761,
        -0.9986452460289001,
        -0.9987947940826416
      ],
      "type": "VEC3"
    },
    {
      "bufferView": 1,
      "componentType": 5126,
      "count": 165,
      "max": [
        0.8750001192092896,
        1.0000001192092896
      ],
      "min": [
        0.1250000149011612,
        0.0
      ],
      "type": "VEC2"
    },
    {
      "bufferView": 0,
      "componentType": 5125,
      "count": 624,
      "type": "SCALAR"
    },
    {
      "bufferView": 2,
      "byteOffset": 3960,
      "componentType": 5126,
      "count": 163,
      "max": [
        5.202757358551025,
        17.774621963500977,
        73.31443786621094
      ],
      "min": [
        4.402337551116943,
        16.57630729675293,
        71.50648498535156
      ],
      "type": "VEC3"
    },
    {
      "bufferView": 2,
      "byteOffset": 5916,
      "componentType": 5126,
      "count": 163,
      "max": [
        0.9986387491226196,
        0.9358150362968445,
        0.9991329908370972
      ],
      "min": [
        -0.9999997019767761,
        -0.9986453056335449,
        -0.9987948536872864
      ],
      "type": "VEC3"
    },
    {
      "bufferView": 1,
      "byteOffset": 1320,
      "componentType": 5126,
      "count": 163,
      "max": [
        0.8750001192092896,
        1.0000001192092896
      ],
      "min": [
        0.1250000149011612,
        0.0
      ],
      "type": "VEC2"
    },
    {
      "bufferView": 0,
      "byteOffset": 2496,
      "componentType": 5125,
      "count": 624,
      "type": "SCALAR"
    },
    {
      "bufferView": 2,
      "byteOffset": 7872,
      "componentType": 5126,
      "count": 165,
      "max": [
        5.699857234954834,
        17.774621963500977,
        73.31443786621094
      ],
      "min": [
        4.899438381195068,
        16.57630729675293,
        71.50648498535156
      ],
      "type": "VEC3"
    },
    {
      "bufferView": 2,
      "byteOffset": 9852,
      "componentType": 5126,
      "count": 165,
      "max": [
        0.9986390471458435,
        0.9358137249946594,
        0.9991331696510315
      ],
      "min": [
        -0.9999997615814209,
        -0.9986453652381897,
        -0.9987948536872864
      ],
      "type": "VEC3"
    },
    {
      "bufferView": 1,
      "byteOffset": 2624,
      "componentType": 5126,
      "count": 165,
      "max": [
        0.8750001192092896,
        1.0000001192092896
      ],
      "min": [
        0.1250000149011612,
        0.0
      ],
      "type": "VEC2"
    },
    {
      "bufferView": 0,
      "byteOffset": 4992,
      "componentType": 5125,
      "count": 624,
      "type": "SCALAR"
    },
    {
      "bufferView": 2,
      "byteOffset": 11832,
      "componentType": 5126,
      "count": 165,
      "max": [
        5.965755939483643,
        17.774621963500977,
        73.31443786621094
      ],
      "min": [
        5.1653361320495605,
        16.57630729675293,
        71.50648498535156
      ],
      "type": "VEC3"
    },
    {
      "bufferView": 2,
      "byteOffset": 13812,
      "componentType": 5126,
      "count": 165,
      "max": [
        0.998638927936554,
        0.9358148574829102,
        0.9991331696510315
      ],
      "min": [
        -0.9999997019767761,
        -0.9986452460289001,
        -0.9987949132919312
      ],
      "type": "VEC3"
    },
    {
      "bufferView": 1,
      "byteOffset": 3944,
      "componentType": 5126,
      "count": 165,
      "max": [
        0.8750001192092896,
        1.0000001192092896
      ],
      "min": [
        0.1250000149011612,
        0.0
      ],
      "type": "VEC2"
    },
    {
      "bufferView": 0,
      "byteOffset": 7488,
      "componentType": 5125,
      "count": 624,
      "type": "SCALAR"
    },
    {
      "bufferView": 2,
      "byteOffset": 15792,
      "componentType": 5126,
      "count": 164,
      "max": [
        6.080286026000977,
        17.774621963500977,
        73.31443786621094
      ],
      "min": [
        5.279866695404053,
        16.57630729675293,
        71.50648498535156
      ],
      "type": "VEC3"
    },
    {
      "bufferView": 2,
      "byteOffset": 17760,
      "componentType": 5126,
      "count": 164,
      "max": [
        0.9986388683319092,
        0.9358154535293579,
        0.9991331100463867
      ],
      "min": [
        -0.9999997019767761,
        -0.9986452460289001,
        -0.9987948536872864
      ],
      "type": "VEC3"
    },
    {
      "bufferView": 1,
      "byteOffset": 5264,
      "componentType": 5126,
      "count": 164,
      "max": [
        0.8750001192092896,
        1.0000001192092896
      ],
      "min": [
        0.1250000149011612,
        0.0
      ],
      "type": "VEC2"
    },
    {
      "bufferView": 0,
      "byteOffset": 9984,
      "componentType": 5125,
      "count": 624,
      "type": "SCALAR"
    },
    {
      "bufferView": 2,
      "byteOffset": 19728,
      "componentType": 5126,
      "count": 7854,
      "max": [
        1.459848165512085,
        0.4959472417831421,
        1.1852648258209229
      ],
      "min": [
        -1.459848165512085,
        -0.09723208844661713,
        -1.4806160926818848
      ],
      "type": "VEC3"
    },
    {
      "bufferView": 2,
      "byteOffset": 113976,
      "componentType": 5126,
      "count": 7854,
      "max": [
        0.9998845458030701,
        0.9994838237762451,
        0.9998520016670227
      ],
      "min": [
        -1.0,
        -0.9998093843460083,
        -0.9999725222587585
      ],
      "type": "VEC3"
    },
    {
      "bufferView": 1,
      "byteOffset": 6576,
      "componentType": 5126,
      "count": 7854,
      "max": [
        1.0000001192092896,
        0.844265878200531
      ],
      "min": [
        0.0,
        0.0
      ],
      "type": "VEC2"
    },
    {
      "bufferView": 0,
      "byteOffset": 12480,
      "componentType": 5125,
      "count": 37980,
      "type": "SCALAR"
    },
    {
      "bufferView": 2,
      "byteOffset": 208224,
      "componentType": 5126,
      "count": 314,
      "max": [
        0.08012767136096954,
        0.4230748414993286,
        0.22049881517887115
      ],
      "min": [
        -0.08012767136096954,
        0.2989327013492584,
        -0.12862703204154968
      ],
      "type": "VEC3"
    },
    {
      "bufferView": 2,
      "byteOffset": 211992,
      "componentType": 5126,
      "count": 314,
      "max": [
        0.9989264607429504,
        0.968273401260376,
        0.5319379568099976
      ],
      "min": [
        -0.9989265203475952,
        -0.2696191668510437,
        -0.4678235650062561
      ],
      "type": "VEC3"
    },
    {
      "bufferView": 1,
      "byteOffset": 69408,
      "componentType": 5126,
      "count": 314,
      "max": [
        0.975902795791626,
        0.5001970529556274
      ],
      "min": [
        0.6690613031387329,
        0.28010010719299316
      ],
      "type": "VEC2"
    },
    {
      "bufferView": 0,
      "byteOffset": 164400,
      "componentType": 5125,
      "count": 1056,
      "type": "SCALAR"
    },
    {
      "bufferView": 2,
      "byteOffset": 215760,
      "componentType": 5126,
      "count": 301,
      "max": [
        0.0554686114192009,
        0.4581747055053711,
        1.3398908376693726
      ],
      "min": [
        -0.0554686114192009,
        0.34925487637519836,
        1.232952356338501
      ],
      "type": "VEC3"
    },
    {
      "bufferView": 2,
      "byteOffset": 219372,
      "componentType": 5126,
      "count": 301,
      "max": [
        0.964755117893219,
        0.9553425908088684,
        0.9973078966140747
      ],
      "min": [
        -0.9647550582885742,
        -0.9964057207107544,
        -0.9888642430305481
      ],
      "type": "VEC3"
    },
    {
      "bufferView": 1,
      "byteOffset": 71920,
      "componentType": 5126,
      "count": 301,
      "max": [
        0.49000006914138794,
        0.49000006914138794
      ],
      "min": [
        0.2499999701976776,
        0.01000000536441803
      ],
      "type": "VEC2"
    },
    {
      "bufferView": 0,
      "byteOffset": 168624,
      "componentType": 5125,
      "count": 1056,
      "type": "SCALAR"
    },
    {
      "bufferView": 2,
      "byteOffset": 222984,
      "componentType": 5126,
      "count": 330,
      "max": [
        0.16624608635902405,
        1.0792670923631675e-10,
        0.09847727417945862
      ],
      "min": [
        -0.1640615165233612,
        -0.007308120373636484,
        -0.19426293671131134
      ],
      "type": "VEC3"
    },
    {
      "bufferView": 2,
      "byteOffset": 226944,
      "componentType": 5126,
      "count": 330,
      "max": [
        0.9999448657035828,
        1.0,
        1.0
      ],
      "min": [
        -0.9999178051948547,
        -1.0,
        -1.0
      ],
      "type": "VEC3"
    },
    {
      "bufferView": 1,
      "byteOffset": 74328,
      "componentType": 5126,
      "count": 330,
      "max": [
        1.0000001192092896,
        1.0000001192092896
      ],
      "min": [
        0.0,
        0.0
      ],
      "type": "VEC2"
    },
    {
      "bufferView": 0,
      "byteOffset": 172848,
      "componentType": 5125,
      "count": 1584,
      "type": "SCALAR"
    },
    {
      "bufferView": 3,
      "componentType": 5126,
      "count": 1,
      "max": [
        0.0416666679084301
      ],
      "min": [
        0.0416666679084301
      ],
      "type": "SCALAR"
    },
    {
      "bufferView": 5,
      "componentType": 5126,
      "count": 1,
      "max": [
        0.07845910638570786,
        0.0,
        -0.0,
        0.9969173073768616
      ],
      "min": [
        0.07845910638570786,
        0.0,
        -0.0,
        0.9969173073768616
      ],
      "type": "VEC4"
    },
    {
      "bufferView": 3,
      "byteOffset": 4,
      "componentType": 5126,
      "count": 1,
      "max": [
        0.0416666679084301
      ],
      "min": [
        0.0416666679084301
      ],
      "type": "SCALAR"
    },
    {
      "bufferView": 5,
      "byteOffset": 16,
      "componentType": 5126,
      "count": 1,
      "max": [
        0.05127384513616562,
        -0.0006022451561875641,
        -0.0005754603771492839,
        0.998684287071228
      ],
      "min": [
        0.05127384513616562,
        -0.0006022451561875641,
        -0.0005754603771492839,
        0.998684287071228
      ],
      "type": "VEC4"
    },
    {
      "bufferView": 3,
      "byteOffset": 8,
      "componentType": 5126,
      "count": 100,
      "max": [
        4.166666507720947
      ],
      "min": [
        0.0416666679084301
      ],
      "type": "SCALAR"
    },
    {
      "bufferView": 5,
      "byteOffset": 32,
      "componentType": 5126,
      "count": 100,
      "max": [
        0.0,
        0.9997168183326721,
        -0.0,
        1.0
      ],
      "min": [
        0.0,
        -0.9997168183326721,
        -0.0,
        0.023796770721673965
      ],
      "type": "VEC4"
    },
    {
      "bufferView": 3,
      "byteOffset": 408,
      "componentType": 5126,
      "count": 45,
      "max": [
        4.166666507720947
      ],
      "min": [
        0.0416666679084301
      ],
      "type": "SCALAR"
    },
    {
      "bufferView": 4,
      "componentType": 5126,
      "count": 45,
      "max": [
        8.415838241577148,
        8.415837287902832,
        8.415838241577148
      ],
      "min": [
        8.415836334228516,
        8.415837287902832,
        8.415836334228516
      ],
      "type": "VEC3"
    }
  ],
  "animations": [
    {
      "channels": [
        {
          "sampler": 0,
          "target": {
            "node": 14,
            "path": "rotation"
          }
        },
        {
          "sampler": 1,
          "target": {
            "node": 17,
            "path": "rotation"
          }
        },
        {
          "sampler": 2,
          "target": {
            "node": 3,
            "path": "rotation"
          }
        },
        {
          "sampler": 3,
          "target": {
            "node": 3,
            "path": "scale"
          }
        }
      ],
      "name": "Animation",
      "samplers": [
        {
          "input": 36,
          "interpolation": "LINEAR",
          "output": 37
        },
        {
          "input": 38,
          "interpolation": "LINEAR",
          "output": 39
        },
        {
          "input": 40,
          "interpolation": "LINEAR",
          "output": 41
        },
        {
          "input": 42,
          "interpolation": "LINEAR",
          "output": 43
        }
      ]
    }
  ],
  "asset": {
    "extras": {
      "author": "predator10597 (https://sketchfab.com/predator10597)",
      "license": "CC-BY-NC-4.0 (http://creativecommons.org/licenses/by-nc/4.0/)",
      "source": "https://sketchfab.com/3d-models/plane-e956f14e283f4f75b035165ad9e29365",
      "title": "Plane"
    },
    "generator": "Sketchfab-15.42.0",
    "version": "2.0"
  },
  "bufferViews": [
    {
      "buffer": 0,
      "byteLength": 179184,
      "name": "floatBufferViews",
      "target": 34963
    },
    {
      "buffer": 0,
      "byteLength": 76968,
      "byteOffset": 179184,
      "byteStride": 8,
      "name": "floatBufferViews",
      "target": 34962
    },
    {
      "buffer": 0,
      "byteLength": 230904,
      "byteOffset": 256152,
      "byteStride": 12,
      "name": "floatBufferViews",
      "target": 34962
    },
    {
      "buffer": 0,
      "byteLength": 588,
      "byteOffset": 487056,
      "name": "floatBufferViews"
    },
    {
      "buffer": 0,
      "byteLength": 540,
      "byteOffset": 487644,
      "byteStride": 12,
      "name": "floatBufferViews"
    },
    {
      "buffer": 0,
      "byteLength": 1632,
      "byteOffset": 488184,
      "byteStride": 16,
      "name": "floatBufferViews"
    }
  ],
  "buffers": [
    {
      "byteLength": 489816,
      "uri": "scene.bin"
    }
  ],
  "materials": [
    {
      "doubleSided": true,
      "name": "Material.004",
      "pbrMetallicRoughness": {
        "baseColorFactor": [
          0.066626,
          0.0865005,
          0.0331048,
          1.0
        ],
        "metallicFactor": 0.0,
        "roughnessFactor": 0.5
      }
    },
    {
      "doubleSided": true,
      "name": "Material.003",
      "pbrMetallicRoughness": {
        "baseColorFactor": [
          0.0549648,
          0.0427312,
          0.0143782,
          1.0
        ],
        "metallicFactor": 0.0,
        "roughnessFactor": 0.5
      }
    },
    {
      "doubleSided": true,
      "name": "Material.001"
    },
    {
      "doubleSided": true,
      "name": "Material.005"
    },
    {
      "doubleSided": true,
      "name": "Material.006",
      "pbrMetallicRoughness": {
        "baseColorFactor": [
          0.12371,
          0.119435,
          0.116101,
          1.0
        ],
        "metallicFactor": 0.0,
        "roughnessFactor": 0.5
      }
    },
    {
      "doubleSided": true,
      "name": "Material.007",
      "pbrMetallicRoughness": {
        "baseColorFactor": [
          0.0352178,
          0.0349039,
          0.0339722,
          1.0
        ],
        "metallicFactor": 0.0,
        "roughnessFactor": 0.5
      }
    }
  ],
  "meshes": [
    {
      "name": "Object_0",
      "primitives": [
        {
          "attributes": {
            "NORMAL": 1,
            "POSITION": 0,
            "TEXCOORD_0": 2
          },
          "indices": 3,
          "material": 0,
          "mode": 4
        }
      ]
    },
    {
      "name": "Object_1",
      "primitives": [
        {
          "attributes": {
            "NORMAL": 5,
            "POSITION": 4,
            "TEXCOORD_0": 6
          },
          "indices": 7,
          "material": 0,
          "mode": 4
        }
      ]
    },
    {
      "name": "Object_2",
      "primitives": [
        {
          "attributes": {
            "NORMAL": 9,
            "POSITION": 8,
            "TEXCOORD_0": 10
          },
          "indices": 11,
          "material": 0,
          "mode": 4
        }
      ]
    },
    {
      "name": "Object_3",
      "primitives": [
        {
          "attributes": {
            "NORMAL": 13,
            "POSITION": 12,
            "TEXCOORD_0": 14
          },
          "indices": 15,
          "material": 1,
          "mode": 4
        }
      ]
    },
    {
      "name": "Object_4",
      "primitives": [
        {
          "attributes": {
            "NORMAL": 17,
            "POSITION": 16,
            "TEXCOORD_0": 18
          },
          "indices": 19,
          "material": 1,
          "mode": 4
        }
      ]
    },
    {
      "name": "Object_5",
      "primitives": [
        {
          "attributes": {
            "NORMAL": 21,
            "POSITION": 20,
            "TEXCOORD_0": 22
          },
          "indices": 23,
          "material": 2,
          "mode": 4
        }
      ]
    },
    {
      "name": "Object_6",
      "primitives": [
        {
          "attributes": {
            "NORMAL": 25,
            "POSITION": 24,
            "TEXCOORD_0": 26
          },
          "indices": 27,
          "material": 3,
          "mode": 4
        }
      ]
    },
    {
      "name": "Object_7",
      "primitives": [
        {
          "attributes": {
            "NORMAL": 29,
            "POSITION": 28,
            "TEXCOORD_0": 30
          },
          "indices": 31,
          "material": 4,
          "mode": 4
        }
      ]
    },
    {
      "name": "Object_8",
      "primitives": [
        {
          "attributes": {
            "NORMAL": 33,
            "POSITION": 32,
            "TEXCOORD_0": 34
          },
          "indices": 35,
          "material": 5,
          "mode": 4
        }
      ]
    }
  ],
  "nodes": [
    {
      "children": [
        1
      ],
      "matrix": [
        1.0,
        0.0,
        0.0,
        0.0,
        0.0,
        2.220446049250313e-16,
        -1.0,
        0.0,
        0.0,
        1.0,
        2.220446049250313e-16,
        0.0,
        0.0,
        0.0,
        0.0,
        1.0
      ],
      "name": "Sketchfab_model"
    },
    {
      "children": [
        2
      ],
      "name": "root"
    },
    {
      "children": [
        3,
        4,
        6,
        8,
        10,
        12,
        14,
        17,
        19
      ],
      "matrix": [
        1.0,
        0.0,
        0.0,
        0.0,
        0.0,
        2.220446049250313e-16,
        1.0,
        0.0,
        0.0,
        -1.0,
        2.220446049250313e-16,
        0.0,
        0.0,
        0.0,
        0.0,
        1.0
      ],
      "name": "GLTF_SceneRootNode"
    },
    {
      "name": "BezierCircle.001_2",
      "scale": [
        8.415837287902832,
        8.415837287902832,
        8.415837287902832
      ]
    },
    {
      "children": [
        5
      ],
      "name": "Cube_7",
      "rotation": [
        0.07256089150905609,
        0.017373649403452873,
        -0.014894507825374603,
        0.9971014261245728
      ],
      "scale": [
        0.025690242648124695,
        0.025690242648124695,
        0.012448159046471119
      ],
      "translation": [
        -0.043542612344026566,
        -0.02239406667649746,
        0.09469754993915558
      ]
    },
    {
      "mesh": 0,
      "name": "Object_5"
    },
    {
      "children": [
        7
      ],
      "name": "Cube.001_8",
      "rotation": [
        0.07256089150905609,
        0.017373649403452873,
        -0.014894507825374603,
        0.9971014261245728
      ],
      "scale": [
        0.025690242648124695,
        0.025690242648124695,
        0.012448159046471119
      ],
      "translation": [
        -0.04528643935918808,
        -0.022064119577407837,
        0.047127362340688705
      ]
    },
    {
      "mesh": 1,
      "name": "Object_7"
    },
    {
      "children": [
        9
      ],
      "name": "Cube.002_9",
      "rotation": [
        0.07256089150905609,
        0.017373649403452873,
        -0.014894507825374603,
        0.9971014261245728
      ],
      "scale": [
        0.025690242648124695,
        0.025690242648124695,
        0.012448159046471119
      ],
      "translation": [
        -0.04788755998015404,
        -0.023646246641874313,
        -0.022297320887446404
      ]
    },
    {
      "mesh": 2,
      "name": "Object_9"
    },
    {
      "children": [
        11
      ],
      "name": "Cube.003_10",
      "rotation": [
        0.07256089150905609,
        0.017373649403452873,
        -0.014894507825374603,
        0.9971014261245728
      ],
      "scale": [
        0.025690242648124695,
        0.025690242648124695,
        0.012448159046471119
      ],
      "translation": [
        -0.05008324608206749,
        -0.026573162525892258,
        -0.0797257274389267
      ]
    },
    {
      "mesh": 3,
      "name": "Object_11"
    },
    {
      "children": [
        13
      ],
      "name": "Cube.004_11",
      "rotation": [
        0.07256089150905609,
        0.017373649403452873,
        -0.014894507825374603,
        0.9971014261245728
      ],
      "scale": [
        0.025690242648124695,
        0.025690242648124695,
        0.012448159046471119
      ],
      "translation": [
        -0.05240907892584801,
        -0.03137324005365372,
        -0.13930295407772064
      ]
    },
    {
      "mesh": 4,
      "name": "Object_13"
    },
    {
      "children": [
        15,
        16
      ],
      "name": "cuerpo_12"
    },
    {
      "mesh": 5,
      "name": "Object_15"
    },
    {
      "mesh": 6,
      "name": "Object_16"
    },
    {
      "children": [
        18
      ],
      "name": "pico_13",
      "rotation": [
        -0.027240095660090446,
        -0.0006455387338064611,
        -0.0005264348583295941,
        0.9996286630630493
      ],
      "scale": [
        0.9620322585105896,
        0.9620320200920105,
        0.9620321393013
      ],
      "translation": [
        5.966531261947239e-06,
        -0.007343502715229988,
        -0.0009582344791851938
      ]
    },
    {
      "mesh": 7,
      "name": "Object_18"
    },
    {
      "children": [
        20
      ],
      "matrix": [
        1.0,
        0.0,
        0.0,
        0.0,
        0.0,
        0.9876883418740735,
        0.15643445696534825,
        0.0,
        0.0,
        -0.15643445696534825,
        0.9876883418740735,
        0.0,
        0.0,
        0.0,
        0.0,
        1.0
      ],
      "name": "AVION_15"
    },
    {
      "children": [
        21
      ],
      "matrix": [
        1.7009943723678589,
        0.0,
        0.0,
        0.0,
        0.0,
        0.2660940223638418,
        1.68005244907355,
        0.0,
        0.0,
        -1.68005244907355,
        0.2660940223638418,
        0.0,
        -0.0029654018580913544,
        0.44255003333091736,
        1.1838743686676025,
        1.0
      ],
      "name": "Helice_14"
    },
    {
      "mesh": 8,
      "name": "Object_21"
    }
  ],
  "scene": 0,
  "scenes": [
    {
      "name": "Sketchfab_Scene",
      "nodes": [
        0
      ]
    }
  ]
}
