<?xml version="1.0" standalone="no"?>
<!DOCTYPE svg PUBLIC "-//W3C//DTD SVG 20010904//EN"
 "http://www.w3.org/TR/2001/REC-SVG-20010904/DTD/svg10.dtd">
<svg version="1.0" xmlns="http://www.w3.org/2000/svg"
 width="240.000000pt" height="240.000000pt" viewBox="0 0 240.000000 240.000000"
 preserveAspectRatio="xMidYMid meet">

<g transform="translate(0.000000,240.000000) scale(0.100000,-0.100000)"
fill="#000000" stroke="none">
<path d="M0 1200 l0 -1200 1200 0 1200 0 0 1200 0 1200 -1200 0 -1200 0 0
-1200z m1330 630 c0 -5 -6 -10 -13 -10 -7 0 -22 -6 -33 -14 -18 -13 -19 -32
-24 -270 l-5 -255 -57 35 -58 36 0 218 c0 233 -3 250 -51 250 -10 0 -19 5 -19
10 0 6 50 10 130 10 80 0 130 -4 130 -10z m-220 -201 c0 -13 -19 -39 -45 -63
-42 -40 -45 -46 -45 -94 0 -45 5 -57 34 -90 19 -20 98 -75 177 -122 169 -101
232 -156 249 -219 20 -77 -7 -177 -62 -228 -23 -22 -103 -62 -124 -63 -23 0 0
55 38 90 34 33 38 42 38 84 0 88 -32 122 -210 228 -205 121 -243 165 -244 278
0 77 25 135 77 174 63 48 117 59 117 25z m262 -20 c65 -33 78 -60 78 -161 0
-100 -15 -116 -36 -36 -16 65 -50 120 -90 147 -26 18 -34 31 -34 53 0 26 3 29
23 22 12 -3 38 -15 59 -25z m-165 -521 l55 -33 -4 -160 c-3 -142 -6 -165 -27
-208 -51 -106 -162 -148 -293 -111 -35 10 -17 24 30 24 67 0 112 27 142 86 24
46 25 59 28 241 2 106 6 193 9 193 3 0 30 -15 60 -32z m-253 -105 c23 -76 57
-124 106 -152 30 -17 40 -28 40 -48 0 -23 -3 -25 -32 -19 -48 10 -117 54 -139
89 -14 24 -19 51 -19 110 0 95 18 104 44 20z"/>
</g>
</svg>
